# Blender v2.79 (sub 0) OBJ File: ''
# www.blender.org
v -0.150000 0.000000 0.800000
v -0.147118 0.029264 0.800000
v -0.138582 0.057403 0.800000
v -0.124720 0.083336 0.800000
v -0.106066 0.106066 0.800000
v -0.083336 0.124720 0.800000
v -0.057403 0.138582 0.800000
v -0.029264 0.147118 0.800000
v -0.000000 0.150000 0.800000
v 0.029264 0.147118 0.800000
v 0.057402 0.138582 0.800000
v 0.083336 0.124720 0.800000
v 0.106066 0.106066 0.800000
v 0.124720 0.083336 0.800000
v 0.138582 0.057402 0.800000
v 0.147118 0.029264 0.800000
v 0.150000 -0.000000 0.800000
v 0.147118 -0.029264 0.800000
v 0.138582 -0.057403 0.800000
v 0.124720 -0.083336 0.800000
v 0.106066 -0.106066 0.800000
v 0.083335 -0.124721 0.800000
v 0.057402 -0.138582 0.800000
v 0.000000 0.000000 1.000000
v 0.029263 -0.147118 0.800000
v -0.000000 -0.150000 0.800000
v -0.029264 -0.147118 0.800000
v -0.057403 -0.138582 0.800000
v -0.083336 -0.124720 0.800000
v -0.106066 -0.106066 0.800000
v -0.124721 -0.083335 0.800000
v -0.138582 -0.057402 0.800000
v -0.147118 -0.029263 0.800000
vn -0.7975 0.0785 0.5981
vn -0.7669 0.2326 0.5981
vn -0.7068 0.3778 0.5981
vn -0.6195 0.5084 0.5981
vn -0.5084 0.6195 0.5981
vn -0.3778 0.7068 0.5981
vn -0.2326 0.7669 0.5981
vn -0.0785 0.7975 0.5981
vn 0.0785 0.7975 0.5981
vn 0.2326 0.7669 0.5981
vn 0.3778 0.7068 0.5981
vn 0.5084 0.6195 0.5981
vn 0.6195 0.5084 0.5981
vn 0.7068 0.3778 0.5981
vn 0.7669 0.2326 0.5981
vn 0.7975 0.0785 0.5981
vn 0.7975 -0.0786 0.5981
vn 0.7669 -0.2326 0.5981
vn 0.7068 -0.3778 0.5981
vn 0.6195 -0.5084 0.5981
vn 0.5084 -0.6195 0.5981
vn 0.3778 -0.7068 0.5981
vn 0.2326 -0.7669 0.5981
vn 0.0785 -0.7975 0.5981
vn -0.0786 -0.7975 0.5981
vn -0.2326 -0.7669 0.5981
vn -0.3778 -0.7068 0.5981
vn -0.5084 -0.6195 0.5981
vn -0.6195 -0.5084 0.5981
vn -0.7068 -0.3778 0.5981
vn -0.7669 -0.2326 0.5981
vn -0.7975 -0.0785 0.5981
vn 0.0000 0.0000 -1.0000
usemtl None
s off
f 1//1 24//1 2//1
f 2//2 24//2 3//2
f 3//3 24//3 4//3
f 4//4 24//4 5//4
f 5//5 24//5 6//5
f 6//6 24//6 7//6
f 7//7 24//7 8//7
f 8//8 24//8 9//8
f 9//9 24//9 10//9
f 10//10 24//10 11//10
f 11//11 24//11 12//11
f 12//12 24//12 13//12
f 13//13 24//13 14//13
f 14//14 24//14 15//14
f 15//15 24//15 16//15
f 16//16 24//16 17//16
f 17//17 24//17 18//17
f 18//18 24//18 19//18
f 19//19 24//19 20//19
f 20//20 24//20 21//20
f 21//21 24//21 22//21
f 22//22 24//22 23//22
f 23//23 24//23 25//23
f 25//24 24//24 26//24
f 26//25 24//25 27//25
f 27//26 24//26 28//26
f 28//27 24//27 29//27
f 29//28 24//28 30//28
f 30//29 24//29 31//29
f 31//30 24//30 32//30
f 32//31 24//31 33//31
f 33//32 24//32 1//32
f 1//33 2//33 3//33 4//33 5//33 6//33 7//33 8//33 9//33 10//33 11//33 12//33 13//33 14//33 15//33 16//33 17//33 18//33 19//33 20//33 21//33 22//33 23//33 25//33 26//33 27//33 28//33 29//33 30//33 31//33 32//33 33//33
o Cylinder
v -0.150000 0.000000 0.800000
v -0.147118 0.029264 0.800000
v -0.138582 0.057403 0.800000
v -0.124720 0.083336 0.800000
v -0.106066 0.106066 0.800000
v -0.083336 0.124720 0.800000
v -0.057403 0.138582 0.800000
v -0.029264 0.147118 0.800000
v -0.000000 0.150000 0.800000
v 0.029264 0.147118 0.800000
v 0.057402 0.138582 0.800000
v 0.083336 0.124720 0.800000
v 0.106066 0.106066 0.800000
v 0.124720 0.083336 0.800000
v 0.138582 0.057402 0.800000
v 0.147118 0.029264 0.800000
v 0.150000 -0.000000 0.800000
v 0.147118 -0.029264 0.800000
v 0.138582 -0.057403 0.800000
v 0.124720 -0.083336 0.800000
v 0.106066 -0.106066 0.800000
v 0.083335 -0.124721 0.800000
v 0.057402 -0.138582 0.800000
v 0.000000 0.000000 1.000000
v 0.029263 -0.147118 0.800000
v -0.000000 -0.150000 0.800000
v -0.029264 -0.147118 0.800000
v -0.057403 -0.138582 0.800000
v -0.083336 -0.124720 0.800000
v -0.106066 -0.106066 0.800000
v -0.124721 -0.083335 0.800000
v -0.138582 -0.057402 0.800000
v -0.147118 -0.029263 0.800000
v -0.060000 0.000000 0.000000
v -0.060000 0.000000 0.800000
v -0.058847 0.011705 0.000000
v -0.058847 0.011705 0.800000
v -0.055433 0.022961 0.000000
v -0.055433 0.022961 0.800000
v -0.049888 0.033334 0.000000
v -0.049888 0.033334 0.800000
v -0.042426 0.042426 0.000000
v -0.042426 0.042426 0.800000
v -0.033334 0.049888 0.000000
v -0.033334 0.049888 0.800000
v -0.022961 0.055433 0.000000
v -0.022961 0.055433 0.800000
v -0.011705 0.058847 0.000000
v -0.011705 0.058847 0.800000
v -0.000000 0.060000 0.000000
v -0.000000 0.060000 0.800000
v 0.011705 0.058847 0.000000
v 0.011705 0.058847 0.800000
v 0.022961 0.055433 0.000000
v 0.022961 0.055433 0.800000
v 0.033334 0.049888 0.000000
v 0.033334 0.049888 0.800000
v 0.042426 0.042426 0.000000
v 0.042426 0.042426 0.800000
v 0.049888 0.033334 0.000000
v 0.049888 0.033334 0.800000
v 0.055433 0.022961 0.000000
v 0.055433 0.022961 0.800000
v 0.058847 0.011705 0.000000
v 0.058847 0.011705 0.800000
v 0.060000 -0.000000 0.000000
v 0.060000 -0.000000 0.800000
v 0.058847 -0.011705 0.000000
v 0.058847 -0.011705 0.800000
v 0.055433 -0.022961 0.000000
v 0.055433 -0.022961 0.800000
v 0.049888 -0.033334 0.000000
v 0.049888 -0.033334 0.800000
v 0.042426 -0.042426 0.000000
v 0.042426 -0.042426 0.800000
v 0.033334 -0.049888 0.000000
v 0.033334 -0.049888 0.800000
v 0.022961 -0.055433 0.000000
v 0.022961 -0.055433 0.800000
v 0.011705 -0.058847 0.000000
v 0.011705 -0.058847 0.800000
v -0.000000 -0.060000 0.000000
v -0.000000 -0.060000 0.800000
v -0.011705 -0.058847 0.000000
v -0.011705 -0.058847 0.800000
v -0.022961 -0.055433 0.000000
v -0.022961 -0.055433 0.800000
v -0.033334 -0.049888 0.000000
v -0.033334 -0.049888 0.800000
v -0.042426 -0.042426 0.000000
v -0.042426 -0.042426 0.800000
v -0.049888 -0.033334 0.000000
v -0.049888 -0.033334 0.800000
v -0.055433 -0.022961 0.000000
v -0.055433 -0.022961 0.800000
v -0.058847 -0.011705 0.000000
v -0.058847 -0.011705 0.800000
v 0.008439 -0.042426 0.800000
vn -0.7975 0.0785 0.5981
vn -0.7669 0.2326 0.5981
vn -0.7068 0.3778 0.5981
vn -0.6195 0.5084 0.5981
vn -0.5084 0.6195 0.5981
vn -0.3778 0.7068 0.5981
vn -0.2326 0.7669 0.5981
vn -0.0785 0.7975 0.5981
vn 0.0785 0.7975 0.5981
vn 0.2326 0.7669 0.5981
vn 0.3778 0.7068 0.5981
vn 0.5084 0.6195 0.5981
vn 0.6195 0.5084 0.5981
vn 0.7068 0.3778 0.5981
vn 0.7669 0.2326 0.5981
vn 0.7975 0.0785 0.5981
vn 0.7975 -0.0786 0.5981
vn 0.7669 -0.2326 0.5981
vn 0.7068 -0.3778 0.5981
vn 0.6195 -0.5084 0.5981
vn 0.5084 -0.6195 0.5981
vn 0.3778 -0.7068 0.5981
vn 0.2326 -0.7669 0.5981
vn 0.0785 -0.7975 0.5981
vn -0.0786 -0.7975 0.5981
vn -0.2326 -0.7669 0.5981
vn -0.3778 -0.7068 0.5981
vn -0.5084 -0.6195 0.5981
vn -0.6195 -0.5084 0.5981
vn -0.7068 -0.3778 0.5981
vn -0.7669 -0.2326 0.5981
vn -0.7975 -0.0785 0.5981
vn -0.0000 -0.0000 -1.0000
vn -0.9952 0.0980 0.0000
vn -0.9569 0.2903 0.0000
vn -0.8819 0.4714 0.0000
vn -0.7730 0.6344 0.0000
vn -0.6344 0.7730 0.0000
vn -0.4714 0.8819 0.0000
vn -0.2903 0.9569 0.0000
vn -0.0980 0.9952 0.0000
vn 0.0980 0.9952 0.0000
vn 0.2903 0.9569 0.0000
vn 0.4714 0.8819 0.0000
vn 0.6344 0.7730 0.0000
vn 0.7730 0.6344 0.0000
vn 0.8819 0.4714 0.0000
vn 0.9569 0.2903 0.0000
vn 0.9952 0.0980 0.0000
vn 0.9952 -0.0980 0.0000
vn 0.9569 -0.2903 0.0000
vn 0.8819 -0.4714 0.0000
vn 0.7730 -0.6344 0.0000
vn 0.6344 -0.7730 0.0000
vn 0.4714 -0.8819 0.0000
vn 0.2903 -0.9569 0.0000
vn 0.0980 -0.9952 0.0000
vn -0.0980 -0.9952 0.0000
vn -0.2903 -0.9569 0.0000
vn -0.4714 -0.8819 0.0000
vn -0.6344 -0.7730 0.0000
vn -0.7730 -0.6344 0.0000
vn -0.8819 -0.4714 0.0000
vn -0.9569 -0.2903 0.0000
vn -0.9952 -0.0980 0.0000
usemtl None
s off
f 34//34 57//34 35//34
f 35//35 57//35 36//35
f 36//36 57//36 37//36
f 37//37 57//37 38//37
f 38//38 57//38 39//38
f 39//39 57//39 40//39
f 40//40 57//40 41//40
f 41//41 57//41 42//41
f 42//42 57//42 43//42
f 43//43 57//43 44//43
f 44//44 57//44 45//44
f 45//45 57//45 46//45
f 46//46 57//46 47//46
f 47//47 57//47 48//47
f 48//48 57//48 49//48
f 49//49 57//49 50//49
f 50//50 57//50 51//50
f 51//51 57//51 52//51
f 52//52 57//52 53//52
f 53//53 57//53 54//53
f 54//54 57//54 55//54
f 55//55 57//55 56//55
f 56//56 57//56 58//56
f 58//57 57//57 59//57
f 59//58 57//58 60//58
f 60//59 57//59 61//59
f 61//60 57//60 62//60
f 62//61 57//61 63//61
f 63//62 57//62 64//62
f 64//63 57//63 65//63
f 65//64 57//64 66//64
f 66//65 57//65 34//65
f 34//66 35//66 36//66 37//66 38//66 39//66 40//66 41//66 42//66 84//66 82//66 80//66 78//66 76//66 74//66 72//66 70//66 68//66 130//66 128//66 126//66 124//66 122//66 120//66 118//66 116//66 59//66 60//66 61//66 62//66 63//66 64//66 65//66 66//66
f 67//67 68//67 70//67 69//67
f 69//68 70//68 72//68 71//68
f 71//69 72//69 74//69 73//69
f 73//70 74//70 76//70 75//70
f 75//71 76//71 78//71 77//71
f 77//72 78//72 80//72 79//72
f 79//73 80//73 82//73 81//73
f 81//74 82//74 84//74 83//74
f 83//75 84//75 86//75 85//75
f 85//76 86//76 88//76 87//76
f 87//77 88//77 90//77 89//77
f 89//78 90//78 92//78 91//78
f 91//79 92//79 94//79 93//79
f 93//80 94//80 96//80 95//80
f 95//81 96//81 98//81 97//81
f 97//82 98//82 100//82 99//82
f 99//83 100//83 102//83 101//83
f 101//84 102//84 104//84 103//84
f 103//85 104//85 106//85 105//85
f 105//86 106//86 108//86 107//86
f 107//87 108//87 110//87 109//87
f 109//88 110//88 112//88 111//88
f 111//89 112//89 114//89 113//89
f 113//90 114//90 116//90 115//90
f 115//91 116//91 118//91 117//91
f 117//92 118//92 120//92 119//92
f 119//93 120//93 122//93 121//93
f 121//94 122//94 124//94 123//94
f 123//95 124//95 126//95 125//95
f 125//96 126//96 128//96 127//96
f 127//97 128//97 130//97 129//97
f 129//98 130//98 68//98 67//98
f 67//66 69//66 71//66 73//66 75//66 77//66 79//66 81//66 83//66 85//66 87//66 89//66 91//66 93//66 95//66 97//66 99//66 101//66 103//66 105//66 107//66 109//66 111//66 113//66 115//66 117//66 119//66 121//66 123//66 125//66 127//66 129//66
f 59//66 116//66 114//66 112//66 110//66 108//66 106//66 104//66 102//66 100//66 98//66 96//66 94//66 92//66 90//66 88//66 86//66 84//66 42//66 43//66 44//66 45//66 46//66 47//66 48//66 49//66 50//66 51//66 52//66 53//66 54//66 55//66 56//66 58//66
